<?xml version="1.0" encoding="iso-8859-1"?>
<!-- Generator: Adobe Illustrator 21.1.0, SVG Export Plug-In . SVG Version: 6.00 Build 0)  -->
<svg xmlns="http://www.w3.org/2000/svg" xmlns:xlink="http://www.w3.org/1999/xlink" version="1.1" id="Layer_1" x="0px" y="0px" viewBox="0 0 64 64" style="enable-background:new 0 0 64 64;" xml:space="preserve">
<g>
	<path style="fill:#FAEFDE;" d="M16,53h35c1.105,0,2-0.895,2-2V7c0-1.105-0.895-2-2-2H16c-1.105,0-2,0.895-2,2v44   C14,52.105,14.895,53,16,53z"/>
	<path style="fill:#CDA1A7;" d="M19,53H9V8c0-1.657,1.343-3,3-3h7V53z"/>
	<path style="fill:#EFD8BE;" d="M49,59H11c-1.105,0-2-0.895-2-2v-2c0-1.105,0.895-2,2-2h38c1.105,0,2,0.895,2,2v2   C51,58.105,50.105,59,49,59z"/>
	<polygon style="fill:#ED7899;" points="33,24 33,43 39,43 39,24 43,28 47,24 36,13 25,24 29,28  "/>
	<g>
		<path style="fill:#8D6C9F;" d="M19,8c-0.553,0-1,0.448-1,1v4c0,0.552,0.447,1,1,1s1-0.448,1-1V9C20,8.448,19.553,8,19,8z"/>
		<path style="fill:#8D6C9F;" d="M51,4H12C9.794,4,8,5.794,8,8v47v1c0,2.206,1.794,4,4,4h37c1.654,0,3-1.346,3-3v-3.184    c1.161-0.414,2-1.514,2-2.816V7C54,5.346,52.654,4,51,4z M50,57c0,0.551-0.448,1-1,1H12c-1.103,0-2-0.897-2-2c0-1.245,1.389-2,2-2    h38V57z M52,51c0,0.551-0.448,1-1,1H20V17c0-0.552-0.447-1-1-1s-1,0.448-1,1v35h-6c-0.617,0-1.34,0.223-2,0.633V8    c0-1.103,0.897-2,2-2h39c0.552,0,1,0.449,1,1V51z"/>
		<path style="fill:#8D6C9F;" d="M15,8h-2c-0.553,0-1,0.448-1,1s0.447,1,1,1h2c0.553,0,1-0.448,1-1S15.553,8,15,8z"/>
		<path style="fill:#8D6C9F;" d="M15,13h-2c-0.553,0-1,0.448-1,1s0.447,1,1,1h2c0.553,0,1-0.448,1-1S15.553,13,15,13z"/>
		<path style="fill:#8D6C9F;" d="M15,18h-2c-0.553,0-1,0.448-1,1s0.447,1,1,1h2c0.553,0,1-0.448,1-1S15.553,18,15,18z"/>
		<path style="fill:#8D6C9F;" d="M15,23h-2c-0.553,0-1,0.448-1,1s0.447,1,1,1h2c0.553,0,1-0.448,1-1S15.553,23,15,23z"/>
		<path style="fill:#8D6C9F;" d="M15,28h-2c-0.553,0-1,0.448-1,1s0.447,1,1,1h2c0.553,0,1-0.448,1-1S15.553,28,15,28z"/>
		<path style="fill:#8D6C9F;" d="M15,33h-2c-0.553,0-1,0.448-1,1s0.447,1,1,1h2c0.553,0,1-0.448,1-1S15.553,33,15,33z"/>
		<path style="fill:#8D6C9F;" d="M15,38h-2c-0.553,0-1,0.448-1,1s0.447,1,1,1h2c0.553,0,1-0.448,1-1S15.553,38,15,38z"/>
		<path style="fill:#8D6C9F;" d="M15,43h-2c-0.553,0-1,0.448-1,1s0.447,1,1,1h2c0.553,0,1-0.448,1-1S15.553,43,15,43z"/>
		<path style="fill:#8D6C9F;" d="M15,48h-2c-0.553,0-1,0.448-1,1s0.447,1,1,1h2c0.553,0,1-0.448,1-1S15.553,48,15,48z"/>
		<path style="fill:#8D6C9F;" d="M36.707,12.293c-0.391-0.391-1.023-0.391-1.414,0l-11,11c-0.391,0.391-0.391,1.023,0,1.414l4,4    c0.391,0.391,1.023,0.391,1.414,0L32,26.414V43c0,0.553,0.448,1,1,1h6c0.552,0,1-0.447,1-1V26.414l2.293,2.293    c0.391,0.391,1.023,0.391,1.414,0l4-4c0.391-0.391,0.391-1.023,0-1.414L36.707,12.293z M43,26.586l-3.293-3.293    c-0.287-0.287-0.716-0.373-1.09-0.217C38.244,23.23,38,23.596,38,24v18h-4V24c0-0.404-0.244-0.77-0.617-0.924    c-0.375-0.156-0.804-0.07-1.09,0.217L29,26.586L26.414,24L36,14.414L45.586,24L43,26.586z"/>
	</g>
</g>
</svg>
